<svg xmlns="http://www.w3.org/2000/svg" viewBox="0 0 100 100">
  <!-- Gradients -->
  <defs>
    <linearGradient id="mainGradient" x1="0%" y1="0%" x2="100%" y2="100%">
      <stop offset="0%" style="stop-color:#A855F7" />
      <stop offset="100%" style="stop-color:#EC4899" />
    </linearGradient>
    <linearGradient id="glowGradient" x1="0%" y1="0%" x2="100%" y2="100%">
      <stop offset="0%" style="stop-color:#A855F7" stop-opacity="0.3" />
      <stop offset="100%" style="stop-color:#EC4899" stop-opacity="0.3" />
    </linearGradient>
  </defs>

  <!-- Background Glow -->
  <circle cx="50" cy="50" r="45" fill="url(#glowGradient)" filter="blur(5px)" />

  <!-- Circuit Lines -->
  <path
    d="M20 50 L30 50 L35 45 L40 55 L45 50"
    stroke="url(#mainGradient)"
    stroke-width="2"
    fill="none"
    opacity="0.5"
  />
  <path
    d="M55 50 L65 50 L70 45 L75 55 L80 50"
    stroke="url(#mainGradient)"
    stroke-width="2"
    fill="none"
    opacity="0.5"
  />

  <!-- D Letter -->
  <path
    d="M30 30 L45 30 Q60 30 60 50 Q60 70 45 70 L30 70 Z"
    stroke="url(#mainGradient)"
    stroke-width="3"
    fill="none"
  />

  <!-- G Letter -->
  <path
    d="M70 30 Q85 30 85 45 L85 55 Q85 70 70 70 Q55 70 55 55 L55 50 L70 50"
    stroke="url(#mainGradient)"
    stroke-width="3"
    fill="none"
  />

  <!-- Digital Dots -->
  <circle cx="30" cy="50" r="2" fill="#A855F7" />
  <circle cx="85" cy="50" r="2" fill="#EC4899" />
  
  <!-- Connection Lines -->
  <path
    d="M32 50 L53 50"
    stroke="url(#mainGradient)"
    stroke-width="1"
    stroke-dasharray="2 2"
  />
</svg> 