<svg xmlns="http://www.w3.org/2000/svg" viewBox="0 0 48 48" fill="#FF9900">
  <path d="M13.527 21.529c0 .597.067 1.078.172 1.426.115.348.278.728.49 1.134.074.137.105.27.105.386 0 .167-.105.338-.307.503l-1.016.678c-.147.098-.288.147-.422.147-.163 0-.326-.078-.489-.225a5.01 5.01 0 0 1-.585-.762c-.163-.27-.326-.57-.498-.908-1.255 1.48-2.825 2.222-4.715 2.222-1.345 0-2.417-.386-3.208-1.157-.791-.771-1.19-1.797-1.19-3.08 0-1.37.489-2.48 1.467-3.328.978-.848 2.28-1.272 3.916-1.272.538 0 1.094.049 1.672.127.578.078 1.172.196 1.793.338v-1.134c0-1.185-.244-2.013-.733-2.485-.498-.473-1.345-.698-2.542-.698-.538 0-1.094.064-1.664.196a12.402 12.402 0 0 0-1.647.534c-.244.098-.424.156-.546.186-.122.03-.212.049-.277.049-.244 0-.367-.176-.367-.527v-.835c0-.274.033-.479.106-.605.074-.127.212-.254.424-.376.529-.376 1.165-.684 1.908-.937A8.793 8.793 0 0 1 7.975 10c1.614 0 2.8.367 3.557 1.1.749.733 1.123 1.846 1.123 3.338v7.091h.872zm-6.511 3.305c.521 0 1.062-.098 1.631-.284.57-.186 1.074-.527 1.516-1.012.261-.308.456-.66.57-1.048.114-.388.172-.854.172-1.402v-.673a13.28 13.28 0 0 0-1.434-.27 11.829 11.829 0 0 0-1.467-.088c-1.043 0-1.81.21-2.3.625-.489.415-.734 1.001-.734 1.758 0 .717.188 1.264.562 1.64.367.376.905.556 1.614.556l.87.198zM21.614 25.841c-.31 0-.521-.054-.652-.152-.13-.098-.245-.322-.342-.674L17.533 13.3c-.098-.362-.147-.601-.147-.717 0-.293.147-.44.44-.44h1.795c.351 0 .587.054.718.152s.229.322.326.674l2.183 8.606 2.028-8.606c.082-.352.18-.576.31-.674.13-.098.375-.152.701-.152h1.467c.351 0 .587.054.718.152.13.098.245.322.31.674l2.053 8.704L32.6 12.97c.098-.352.212-.576.326-.674.114-.098.359-.152.701-.152h1.712c.294 0 .44.147.44.44 0 .09-.016.186-.041.284-.024.098-.065.24-.122.425l-3.167 11.715c-.098.352-.212.576-.342.674-.13.098-.351.152-.652.152h-1.581c-.351 0-.587-.049-.718-.147-.13-.098-.245-.322-.31-.674l-2.02-8.401-2.004 8.393c-.082.352-.18.576-.31.674-.13.098-.375.147-.718.147h-1.581v.157zm17.491.322c-2.419 0-4.316-.562-5.709-1.687-.424-.352-.424-.694-.016-1.021l.701-.835c.196-.235.408-.352.636-.352.163 0 .326.049.489.147 1.01.835 2.126 1.253 3.346 1.253.945 0 1.68-.196 2.208-.587.529-.391.791-.938.791-1.64 0-.562-.188-1.021-.562-1.378-.375-.357-1.075-.674-2.102-.952l-1.516-.425c-1.516-.425-2.607-1.048-3.274-1.87-.668-.82-1.002-1.772-1.002-2.853 0-1.214.473-2.222 1.418-3.021.945-.801 2.216-1.199 3.809-1.199 1.107 0 2.15.171 3.127.513.978.342 1.745.771 2.306 1.287.261.235.359.489.294.762-.065.274-.188.513-.375.718l-.603.835c-.212.274-.424.411-.636.411-.147 0-.31-.049-.489-.147-1.467-1.157-2.9-1.736-4.3-1.736-.799 0-1.418.166-1.858.499-.44.332-.66.796-.66 1.392 0 .513.196.938.587 1.28.391.342 1.157.684 2.297 1.021l1.434.411c1.467.425 2.518 1.021 3.152 1.792.636.771.953 1.699.953 2.788 0 1.321-.489 2.402-1.467 3.241-.978.84-2.329 1.26-4.056 1.26l.407.235z"/>
</svg> 