<svg xmlns="http://www.w3.org/2000/svg" viewBox="0 0 48 48" fill="#F05032">
  <path d="M46.5 21.4L26.6 1.5c-1.1-1.1-2.9-1.1-4 0L18 6.1l5.1 5.1c1.2-0.4 2.5-0.1 3.4 0.8c0.9 0.9 1.2 2.2 0.8 3.4l4.9 4.9c1.2-0.4 2.5-0.1 3.4 0.8c1.3 1.3 1.3 3.3 0 4.6c-1.3 1.3-3.3 1.3-4.6 0c-0.9-0.9-1.2-2.3-0.8-3.5l-4.6-4.6v12.1c0.3 0.2 0.6 0.3 0.9 0.6c1.3 1.3 1.3 3.3 0 4.6c-1.3 1.3-3.3 1.3-4.6 0c-1.3-1.3-1.3-3.3 0-4.6c0.3-0.3 0.7-0.5 1.1-0.7V16.4c-0.4-0.2-0.8-0.4-1.1-0.7c-1-1-1.2-2.3-0.8-3.5L16 7.1 1.5 21.6c-1.1 1.1-1.1 2.9 0 4L21.4 45.5c1.1 1.1 2.9 1.1 4 0l21.1-21.1C47.6 24.3 47.6 22.5 46.5 21.4z"/>
</svg> 