<svg xmlns="http://www.w3.org/2000/svg" viewBox="0 0 48 48" fill="white">
  <path d="M18.974 31.5c0-.704-.581-1.275-1.297-1.275-.717 0-1.298.571-1.298 1.275s.581 1.275 1.298 1.275c.716 0 1.297-.571 1.297-1.275zm22.887 5.991c-.393.545-4.863 6.509-18.336 6.509-13.474 0-17.943-5.964-18.337-6.509A1.3 1.3 0 0 1 5 36.245c0-.715.586-1.295 1.309-1.295.715 0 1.098.465 1.15.524.048.061 4.161 5.018 16.066 5.018 11.904 0 16.017-4.957 16.066-5.018.052-.059.435-.524 1.15-.524.723 0 1.309.58 1.309 1.295 0 .446-.227.861-.189.246zM24 4C12.954 4 4 12.954 4 24s8.954 20 20 20 20-8.954 20-20S35.046 4 24 4zm0 36.849C14.318 40.849 6.515 33.046 6.515 23.364 6.515 13.682 14.318 5.879 24 5.879c9.682 0 17.485 7.803 17.485 17.485 0 9.682-7.803 17.485-17.485 17.485z"/>
  <path d="m35.304 14.365-11.292 16.488-.02-.02-6.298-9.205c-.671-.981-2.064-1.226-3.044-.555-.982.672-1.227 2.064-.555 3.045l7.5 10.955c.672.981 2.064 1.226 3.045.555l12.5-18.258c.671-.981.426-2.373-.555-3.045-.982-.671-2.373-.426-3.045.555-.236.345 2 .485 1.764.485z"/>
</svg> 