<svg xmlns="http://www.w3.org/2000/svg" viewBox="0 0 48 48">
  <linearGradient id="a" x1="12.959" x2="35.041" y1="1.319" y2="46.681" gradientUnits="userSpaceOnUse">
    <stop offset="0" stop-color="#3776AB"/>
    <stop offset="1" stop-color="#366994"/>
  </linearGradient>
  <path fill="url(#a)" d="M24.047 5c-1.555.004-2.633.133-3.766.367-3.343.694-3.947 2.145-3.947 4.824v3.539h7.894v1.179h-7.894-2.967c-2.683 0-5.029 1.612-5.764 4.675-.849 3.519-.884 5.715 0 9.392.655 2.73 2.219 4.676 4.902 4.676h3.172v-4.214c0-3.045 2.633-5.729 5.764-5.729h7.894c2.563 0 4.626-2.114 4.626-4.676v-8.755c0-2.495-2.104-4.366-4.626-4.785-1.603-.267-3.267-.389-4.822-.385zm-4.277 3.539c.816 0 1.484.667 1.484 1.484 0 .816-.667 1.484-1.484 1.484-.816 0-1.484-.667-1.484-1.484 0-.817.667-1.484 1.484-1.484z"/>
  <linearGradient id="b" x1="209.474" x2="173.62" y1="1.675" y2="37.529" gradientTransform="matrix(-1 0 0 1 200.679 0)" gradientUnits="userSpaceOnUse">
    <stop offset="0" stop-color="#FFD43B"/>
    <stop offset="1" stop-color="#FFE873"/>
  </linearGradient>
  <path fill="url(#b)" d="M28.323 14.909v4.099c0 3.176-2.692 5.849-5.764 5.849h-7.894c-2.525 0-4.626 2.163-4.626 4.676v8.755c0 2.495 2.169 3.961 4.626 4.676 2.934.854 5.749 1.008 7.894 0 1.424-.671 4.626-2.027 4.626-4.676v-3.539h-7.894v-1.179h7.894 4.626c2.683 0 3.682-1.871 4.626-4.676.972-2.874.923-5.637 0-9.392-.661-2.679-1.923-4.676-4.626-4.676h-3.488zm-4.411 22.415c.816 0 1.484.667 1.484 1.484 0 .816-.667 1.484-1.484 1.484-.816 0-1.484-.667-1.484-1.484 0-.817.667-1.484 1.484-1.484z"/>
</svg> 